<?xml version="1.0" encoding="UTF-8"?>
<svg id="Layer_2" data-name="Layer 2" xmlns="http://www.w3.org/2000/svg" viewBox="0 0 346.69 58.89">
  <defs>
    <style>
      .cls-1 {
        fill: #023047;
      }

      .cls-2 {
        fill: #219ebc;
      }
    </style>
  </defs>
  <g id="Layer_1-2" data-name="Layer 1">
    <path class="cls-2" d="M149,45.8c-.33,0-.59-.26-.59-.59v-8.18c0-.33.26-.59.59-.59h9.03c.33,0,.59.26.59.59v8.18c0,.33-.26.59-.59.59h-9.03Z"/>
    <g>
      <path class="cls-1" d="M.59,8.83c-.33,0-.59-.26-.59-.59V.59c0-.33.26-.59.59-.59h8.77c.33,0,.59.26.59.59v7.66c0,.33-.26.59-.59.59H.59ZM.59,45.8c-.33,0-.59-.26-.59-.59l.2-16.23-.2-16.29c0-.33.26-.59.59-.59h8.83c.33,0,.59.26.59.59l-.2,16.29.2,16.23c0,.33-.26.59-.59.59H.59Z"/>
      <path class="cls-1" d="M28.34,46.59c-9.81,0-16.1-3.99-16.42-11.52,0-.33.26-.59.59-.59h8.38c.33,0,.59.26.59.59.26,3.79,2.75,5.43,7.33,5.43,3.86,0,5.95-1.5,5.95-4.12,0-6.41-22.05-.2-22.05-14.33,0-7,5.63-10.73,14.72-10.73s14.79,3.53,15.38,10.6c.07.33-.2.59-.52.59h-7.98c-.33,0-.59-.26-.65-.59-.52-2.88-2.36-4.65-6.35-4.65-3.21,0-5.23,1.18-5.23,4.06,0,6.41,22.05-.13,22.05,14.2,0,7.07-6.67,11.06-15.77,11.06Z"/>
      <path class="cls-1" d="M61.4,46.59c-9.81,0-16.1-3.99-16.42-11.52,0-.33.26-.59.59-.59h8.38c.33,0,.59.26.59.59.26,3.79,2.75,5.43,7.33,5.43,3.86,0,5.95-1.5,5.95-4.12,0-6.41-22.05-.2-22.05-14.33,0-7,5.63-10.73,14.72-10.73s14.79,3.53,15.38,10.6c.07.33-.2.59-.52.59h-7.98c-.33,0-.59-.26-.65-.59-.52-2.88-2.36-4.65-6.35-4.65-3.21,0-5.23,1.18-5.23,4.06,0,6.41,22.05-.13,22.05,14.2,0,7.07-6.67,11.06-15.77,11.06Z"/>
      <path class="cls-1" d="M102.88,45.8c-.33,0-.59-.26-.59-.59l.13-3.34c-2.36,2.88-5.69,4.58-9.95,4.58-9.55,0-14.59-7.59-14.59-17.4s5.63-17.6,14.79-17.6c4.19,0,7.46,1.5,9.75,4.25l-.2-3.01c0-.33.26-.59.59-.59h8.77c.33,0,.59.26.59.59l-.2,16.29.2,16.23c0,.33-.26.59-.59.59h-8.7ZM95.22,39.91c4.78,0,7.33-3.6,7.39-10.73.07-7.2-2.49-11.12-7.2-11.19-4.97-.13-7.52,3.6-7.52,10.53,0,7.59,2.62,11.45,7.33,11.38Z"/>
      <path class="cls-1" d="M131.29,46.65c-10.8,0-17.21-6.87-17.21-17.6s6.41-17.8,17.4-17.8c8.64,0,14.26,4.91,15.05,12.24.07.33-.2.59-.52.59h-7.92c-.33,0-.59-.26-.65-.59-.79-3.79-3.14-5.63-5.95-5.63-4.97.07-7.33,3.66-7.33,11.12s2.42,11.06,7.33,11.12c3.34.07,5.82-2.29,6.22-6.67.07-.33.33-.59.65-.59h8.11c.33,0,.59.26.52.59-.72,7.66-6.87,13.22-15.7,13.22Z"/>
      <path class="cls-1" d="M184.66,45.8c-.33,0-.59-.26-.59-.59l.2-3.34c-2.36,2.88-5.69,4.58-9.95,4.58-9.55,0-14.59-7.59-14.59-17.4s5.63-17.6,14.79-17.6c4.12,0,7.39,1.44,9.68,4.19l-.07-15.05c0-.33.26-.59.59-.59h8.7c.33,0,.59.26.59.59l-.13,22.31.13,22.31c0,.33-.26.59-.59.59h-8.77ZM177.07,39.98c4.78,0,7.33-3.6,7.39-10.73.07-7.26-2.49-11.25-7.2-11.32-4.97-.13-7.52,3.66-7.52,10.67,0,7.59,2.62,11.45,7.33,11.38Z"/>
      <path class="cls-1" d="M229.03,34.42c.33,0,.59.26.52.59-.85,6.15-6.74,11.65-16.16,11.65-11.25,0-17.34-7.39-17.34-17.6,0-10.73,6.41-17.8,17.14-17.8s17.21,7.33,17.4,19.11c0,.33-.26.59-.59.59h-24.08c.39,6.35,2.88,9.16,7.59,9.16,3.27,0,5.63-1.5,6.54-5.1.07-.33.39-.59.72-.59h8.24ZM213.26,17.73c-3.93,0-6.28,2.36-7.07,7h13.81c-.39-3.6-2.42-7-6.74-7Z"/>
      <path class="cls-1" d="M247.35,46.59c-9.81,0-16.1-3.99-16.42-11.52,0-.33.26-.59.59-.59h8.38c.33,0,.59.26.59.59.26,3.79,2.75,5.43,7.33,5.43,3.86,0,5.95-1.5,5.95-4.12,0-6.41-22.05-.2-22.05-14.33,0-7,5.63-10.73,14.72-10.73s14.79,3.53,15.38,10.6c.07.33-.2.59-.52.59h-7.98c-.33,0-.59-.26-.65-.59-.52-2.88-2.36-4.65-6.35-4.65-3.21,0-5.23,1.18-5.23,4.06,0,6.41,22.05-.13,22.05,14.2,0,7.07-6.67,11.06-15.77,11.06Z"/>
      <path class="cls-1" d="M265.75,8.83c-.33,0-.59-.26-.59-.59V.59c0-.33.26-.59.59-.59h8.77c.33,0,.59.26.59.59v7.66c0,.33-.26.59-.59.59h-8.77ZM265.75,45.8c-.33,0-.59-.26-.59-.59l.2-16.23-.2-16.29c0-.33.26-.59.59-.59h8.83c.33,0,.59.26.59.59l-.2,16.29.2,16.23c0,.33-.26.59-.59.59h-8.83Z"/>
      <path class="cls-1" d="M294.51,58.89c-8.83.13-15.57-3.47-16.1-10.86,0-.33.26-.59.59-.59h8.44c.39,0,.65.26.72.59.46,2.75,2.68,4.38,6.67,4.38,4.25,0,7.2-2.36,7.2-7.66v-3.86c-2.22,2.94-5.5,4.71-9.68,4.71-10.01,0-15.25-7.39-15.25-16.88s5.63-17.08,14.79-17.08c4.19,0,7.46,1.44,9.75,4.12l-.2-3.08c0-.33.26-.59.59-.59h8.64c.33,0,.59.26.59.59l-.13,16.75.07,15.44c0,8.51-5.56,14-16.68,14ZM294.44,39.19c4.78,0,7.33-3.4,7.39-10.21.07-7-2.49-10.86-7.2-10.93-4.97-.13-7.52,3.53-7.52,10.27,0,7.26,2.62,10.93,7.33,10.86Z"/>
      <path class="cls-1" d="M315.09,45.8c-.33,0-.59-.26-.59-.59l.2-15.57-.07-16.95c0-.33.26-.59.59-.59h8.31c.33,0,.59.26.59.59l-.2,3.66c2.29-2.94,6.15-5.04,10.86-5.04,7.13,0,11.71,4.84,11.71,13.09v7.07l.2,13.74c0,.33-.26.59-.59.59h-8.77c-.33,0-.59-.26-.59-.59l.13-13.74v-6.94c0-3.66-2.16-6.02-5.1-6.02-3.53,0-7.33,3.27-7.33,10.47v2.49l.13,13.74c0,.33-.26.59-.59.59h-8.9Z"/>
    </g>
  </g>
</svg>